<svg width="256" height="256" viewBox="0 0 256 256" fill="none" xmlns="http://www.w3.org/2000/svg">
  <defs>
    <linearGradient id="bg" x1="32" y1="24" x2="220" y2="232" gradientUnits="userSpaceOnUse">
      <stop stop-color="#2E1F14"/>
      <stop offset="0.52" stop-color="#17110D"/>
      <stop offset="1" stop-color="#0F0C0A"/>
    </linearGradient>
    <linearGradient id="gold" x1="64" y1="52" x2="192" y2="204" gradientUnits="userSpaceOnUse">
      <stop stop-color="#F3D89A"/>
      <stop offset="0.45" stop-color="#D9B168"/>
      <stop offset="1" stop-color="#9B6B32"/>
    </linearGradient>
    <radialGradient id="glow" cx="0" cy="0" r="1" gradientUnits="userSpaceOnUse" gradientTransform="translate(84 74) rotate(48.5) scale(140.588)">
      <stop stop-color="#F8E2AD" stop-opacity="0.28"/>
      <stop offset="1" stop-color="#F8E2AD" stop-opacity="0"/>
    </radialGradient>
  </defs>

  <rect x="20" y="20" width="216" height="216" rx="56" fill="url(#bg)"/>
  <rect x="20" y="20" width="216" height="216" rx="56" fill="url(#glow)"/>
  <rect x="21" y="21" width="214" height="214" rx="55" stroke="#F2D79A" stroke-opacity="0.14" stroke-width="2"/>

  <circle cx="86" cy="74" r="10" fill="#B57455" fill-opacity="0.55"/>
  <circle cx="181" cy="187" r="12" fill="#6B9086" fill-opacity="0.42"/>

  <path d="M88 102C88 82.1177 104.118 66 124 66H132C151.882 66 168 82.1177 168 102V110C168 117.732 165.507 125.258 160.891 131.464L143.5 154.842V186C143.5 194.56 136.56 201.5 128 201.5C119.44 201.5 112.5 194.56 112.5 186V154.842L95.1091 131.464C90.4935 125.258 88 117.732 88 110V102Z" fill="#0D0A08" stroke="url(#gold)" stroke-width="13" stroke-linejoin="round"/>
  <path d="M102 122H154" stroke="url(#gold)" stroke-width="12" stroke-linecap="round"/>
  <path d="M128 82V170" stroke="url(#gold)" stroke-width="12" stroke-linecap="round"/>

  <path d="M86 80C71 80 60 67 60 52C75 52 86 63 86 78V80Z" fill="#0D0A08" stroke="url(#gold)" stroke-width="10" stroke-linejoin="round"/>
  <path d="M170 80C185 80 196 67 196 52C181 52 170 63 170 78V80Z" fill="#0D0A08" stroke="url(#gold)" stroke-width="10" stroke-linejoin="round"/>
</svg>
